<?xml version='1.0' encoding='iso-8859-1'?>
<!-- Uploaded to: SVG Repo, www.svgrepo.com, Generator: SVG Repo Mixer Tools -->
<svg fill="#000000" height="800px" width="800px" version="1.1" xmlns="http://www.w3.org/2000/svg" viewBox="0 0 470 470" xmlns:xlink="http://www.w3.org/1999/xlink" enable-background="new 0 0 470 470">
  <g>
    <path d="m289.602,334.317c4.143,0 7.5-3.357 7.5-7.5v-28.28c0-34.909-28.4-63.31-63.309-63.31-34.909,0-63.31,28.4-63.31,63.31v28.28c0,4.143 3.357,7.5 7.5,7.5h12.501v92.374c0,23.881 19.428,43.309 43.309,43.309s43.309-19.428 43.309-43.309v-69.874c0-4.143-3.357-7.5-7.5-7.5s-7.5,3.357-7.5,7.5v69.874c0,15.609-12.699,28.309-28.309,28.309s-28.309-12.699-28.309-28.309v-92.374h84.118zm-104.119-15v-20.78c0-26.638 21.672-48.31 48.31-48.31s48.309,21.672 48.309,48.31v20.78h-96.619z"/>
    <path d="m279.913,74.912c0-24.765-20.147-44.912-44.913-44.912s-44.913,20.147-44.913,44.912c0,24.766 20.147,44.913 44.913,44.913s44.913-20.147 44.913-44.913zm-44.913,29.913c-16.494,0-29.913-13.419-29.913-29.913 0-16.493 13.419-29.912 29.913-29.912s29.913,13.419 29.913,29.912c0,16.494-13.419,29.913-29.913,29.913z"/>
    <path d="m387.494,67.412h-32.5v-1.735c0-10.373-8.438-18.812-18.812-18.812h-31.705c-11.358-28.25-38.619-46.865-69.477-46.865s-58.119,18.615-69.478,46.865h-31.705c-10.373,0-18.812,8.438-18.812,18.812v1.735h-32.5c-4.143,0-7.5,3.357-7.5,7.5s3.357,7.5 7.5,7.5h32.5v1.736c0,10.373 8.438,18.812 18.812,18.812h31.712c1.219,3.015 2.636,5.927 4.221,8.73-33.963,22.036-54.745,59.912-54.745,100.719v127.665c0,30.372 21.732,56.253 51.675,61.537 0.441,0.078 0.88,0.115 1.313,0.115 3.57,0 6.735-2.56 7.377-6.197 0.72-4.079-2.003-7.97-6.082-8.689-22.762-4.018-39.282-23.686-39.282-46.766v-127.665c0-35.904 18.393-69.213 48.407-88.45 10.295,11.853 24.224,20.42 39.924,23.99 4.047,0.917 8.059-1.612 8.977-5.65 0.918-4.039-1.611-8.058-5.65-8.977-13.814-3.141-25.907-11.126-34.307-22.122-0.113-0.278-0.239-0.554-0.388-0.823-0.442-0.795-1.012-1.471-1.664-2.031-3.128-4.633-5.633-9.727-7.374-15.171-0.993-3.107-3.882-5.216-7.144-5.216h-36.97c-2.102,0-3.812-1.71-3.812-3.812v-18.47c0-2.102 1.71-3.812 3.812-3.812h36.97c3.262,0 6.15-2.108 7.144-5.216 7.965-24.912 30.9-41.649 57.069-41.649s49.104,16.737 57.069,41.649c0.993,3.107 3.882,5.216 7.144,5.216h36.97c2.102,0 3.812,1.71 3.812,3.812v18.472c0,2.102-1.71,3.812-3.812,3.812h-36.97c-3.262,0-6.15,2.108-7.144,5.216-6.425,20.091-23.182,35.474-43.732,40.146-4.039,0.919-6.568,4.938-5.65,8.977 0.791,3.479 3.883,5.839 7.307,5.839 0.551,0 1.11-0.062 1.67-0.188 15.699-3.569 29.627-12.135 39.922-23.987 30.01,19.236 48.409,52.561 48.409,88.447v127.665c0,23.764-17.782,44.005-41.363,47.085-4.107,0.536-7.003,4.301-6.466,8.407 0.493,3.778 3.717,6.53 7.427,6.53 0.324,0 0.651-0.021 0.98-0.064 31.025-4.051 54.422-30.688 54.422-61.958v-127.667c0-40.785-20.789-78.681-54.746-100.717 1.586-2.803 3.002-5.716 4.222-8.732h31.712c10.373,0 18.812-8.438 18.812-18.812v-1.736h32.5c4.143,0 7.5-3.357 7.5-7.5s-3.358-7.5-7.501-7.5z"/>
    <path d="m251.926,222.096c4.143,0 7.5-3.357 7.5-7.5s-3.357-7.5-7.5-7.5h-36.266c-4.143,0-7.5,3.357-7.5,7.5s3.357,7.5 7.5,7.5h36.266z"/>
  </g>
</svg>