<?xml version="1.0" encoding="iso-8859-1"?>
<!-- Uploaded to: SVG Repo, www.svgrepo.com, Generator: SVG Repo Mixer Tools -->
<svg fill="#000000" height="800px" width="800px" version="1.1" id="Layer_1" xmlns="http://www.w3.org/2000/svg" xmlns:xlink="http://www.w3.org/1999/xlink" 
	 viewBox="0 0 512 512" xml:space="preserve">
<g>
	<g>
		<path d="M390.033,241.434l-17.067-17.067c-1.596-1.596-3.772-2.5-6.033-2.5H307.2V85.333c0-17.092-10.206-29.705-25.6-33.126
			v-35.14C281.6,7.663,273.946,0,264.533,0h-17.067C238.054,0,230.4,7.663,230.4,17.067v35.14
			c-15.394,3.422-25.6,16.034-25.6,33.126v136.533h-59.733c-2.261,0-4.437,0.905-6.033,2.5l-17.067,17.067
			c-1.604,1.604-2.5,3.763-2.5,6.033V281.6c0,2.27,0.896,4.437,2.5,6.033l17.067,17.067c1.596,1.604,3.772,2.5,6.033,2.5h25.6v25.6
			c0,4.719,3.823,8.533,8.533,8.533h17.067v34.133h42.667c4.71,0,8.533,3.814,8.533,8.533s-3.823,8.533-8.533,8.533h-42.667v25.6
			v61.158c0,18.031,14.669,32.708,32.708,32.708H256c4.71,0,8.533-3.814,8.533-8.533s-3.823-8.533-8.533-8.533h-27.025
			c-8.627,0-15.642-7.014-15.642-15.642v-52.625H230.4v25.617c0,9.404,7.646,17.05,17.05,17.05h17.101
			c9.404,0,17.05-7.646,17.05-17.05v-25.617h25.6c4.71,0,8.533-3.814,8.533-8.533v-42.667h-51.2c-4.71,0-8.533-3.814-8.533-8.533
			s3.823-8.533,8.533-8.533h51.2v-17.067H332.8c4.71,0,8.533-3.814,8.533-8.533v-25.6h25.6c2.261,0,4.437-0.896,6.033-2.5
			l17.067-17.067c1.604-1.596,2.5-3.763,2.5-6.033v-34.133C392.533,245.197,391.637,243.038,390.033,241.434z M264.55,452.267h0.008
			l-0.008,8.533V452.267z M221.867,85.333c0-10.684,6.383-17.067,17.067-17.067h34.133c10.684,0,17.067,6.383,17.067,17.067v136.533
			h-68.267V85.333z M148.599,290.133l-12.066-12.066V251l12.066-12.066h47.667v51.2H179.2H148.599z M264.533,426.667v25.6
			l-17.067,0.017v-25.617H264.533z M324.267,324.267H307.2H204.8h-17.067V307.2H204.8h102.4h17.067V324.267z M375.467,278.067
			l-12.066,12.066H332.8h-17.067v-51.2h47.667L375.467,251V278.067z"/>
	</g>
</g>
</svg>