<?xml version="1.0" encoding="iso-8859-1"?>
<!-- Uploaded to: SVG Repo, www.svgrepo.com, Generator: SVG Repo Mixer Tools -->
<svg fill="#000000" height="800px" width="800px" version="1.1" id="Layer_1" xmlns="http://www.w3.org/2000/svg" xmlns:xlink="http://www.w3.org/1999/xlink" 
	 viewBox="0 0 512 512" xml:space="preserve">
<g transform="translate(1 1)">
	<g>
		<g>
			<path d="M255-1C114.2-1-1,114.2-1,255s115.2,256,256,256s256-115.2,256-256S395.8-1,255-1z M255,493.933
				c-131.413,0-238.933-107.52-238.933-238.933S123.587,16.067,255,16.067S493.933,123.587,493.933,255S386.413,493.933,255,493.933
				z"/>
			<path d="M255,280.6c-18.773,0-34.133,15.36-34.133,34.133c0,18.773,15.36,34.133,34.133,34.133
				c18.773,0,34.133-15.36,34.133-34.133C289.133,295.96,273.773,280.6,255,280.6z M255,331.8c-9.387,0-17.067-7.68-17.067-17.067
				s7.68-17.067,17.067-17.067s17.067,7.68,17.067,17.067S264.387,331.8,255,331.8z"/>
			<path d="M314.733,220.867c-18.773,0-34.133,15.36-34.133,34.133c0,18.773,15.36,34.133,34.133,34.133
				c18.773,0,34.133-15.36,34.133-34.133C348.867,236.227,333.507,220.867,314.733,220.867z M314.733,272.067
				c-9.387,0-17.067-7.68-17.067-17.067s7.68-17.067,17.067-17.067S331.8,245.613,331.8,255S324.12,272.067,314.733,272.067z"/>
			<path d="M255,229.4c18.773,0,34.133-15.36,34.133-34.133c0-18.773-15.36-34.133-34.133-34.133
				c-18.773,0-34.133,15.36-34.133,34.133C220.867,214.04,236.227,229.4,255,229.4z M255,178.2c9.387,0,17.067,7.68,17.067,17.067
				s-7.68,17.067-17.067,17.067s-17.067-7.68-17.067-17.067S245.613,178.2,255,178.2z"/>
			<path d="M195.267,220.867c-18.773,0-34.133,15.36-34.133,34.133c0,18.773,15.36,34.133,34.133,34.133
				c18.773,0,34.133-15.36,34.133-34.133C229.4,236.227,214.04,220.867,195.267,220.867z M195.267,272.067
				c-9.387,0-17.067-7.68-17.067-17.067s7.68-17.067,17.067-17.067s17.067,7.68,17.067,17.067S204.653,272.067,195.267,272.067z"/>
			<path d="M459.8,255c0-1.612-0.03-3.255-0.063-4.905c-0.004-0.16-0.005-0.32-0.009-0.48c-0.135-6.929-0.251-13.95,1.779-19.362
				c-0.524-2.619-2.014-4.912-4.072-6.296c-2.123-13.809-5.645-27.171-10.403-39.945c0.81-2.042,0.894-4.353-0.031-6.666
				c-6.827-16.213-15.36-31.573-26.453-46.08c-1.321-1.761-3.323-3.061-5.42-3.562c-8.218-10.305-17.405-19.805-27.42-28.363
				c-0.4-1.855-1.422-3.586-2.999-4.769c-14.507-11.093-29.867-20.48-46.08-27.307c-1.194-0.478-2.388-0.679-3.544-0.66
				c-15.443-6.616-31.844-11.388-48.928-14.024c-0.679-0.296-1.396-0.528-2.141-0.677c-15.275-2.083-29.421-2.471-43.815-1.164
				c-21.871,1.581-42.814,6.642-62.285,14.619c-0.189,0.062-0.377,0.123-0.566,0.199c-0.605,0.255-1.207,0.517-1.81,0.777
				c-0.053,0.023-0.107,0.046-0.16,0.069c-0.93,0.401-1.856,0.809-2.78,1.222c-4.064,1.801-8.06,3.73-11.982,5.783
				c-0.859,0.447-1.715,0.901-2.569,1.36c-0.212,0.115-0.426,0.228-0.638,0.343c-9,4.883-17.715,10.457-26.14,16.9
				c-0.305,0.229-0.59,0.484-0.866,0.75c-12.825,9.886-24.456,21.251-34.635,33.835c-0.437,0.37-0.841,0.786-1.192,1.254
				c-1.988,2.599-3.918,5.227-5.791,7.881c-19.336,26.827-32.361,58.463-36.847,92.693c-0.009,0.04-0.021,0.079-0.029,0.12
				c-0.009,0.092-0.018,0.186-0.027,0.278c-0.965,7.48-1.51,15.087-1.636,22.79c-0.027,1.14-0.043,2.27-0.043,3.385
				c0,1.114,0.016,2.244,0.043,3.382c0.427,26.005,5.762,50.868,15.118,73.705c0.062,0.189,0.123,0.378,0.199,0.567
				c0.255,0.606,0.517,1.208,0.777,1.811c0.022,0.053,0.045,0.105,0.068,0.157c0.402,0.932,0.81,1.86,1.224,2.786
				c1.801,4.063,3.729,8.058,5.782,11.979c0.447,0.858,0.9,1.714,1.359,2.567c0.115,0.213,0.228,0.427,0.344,0.64
				c4.883,9,10.457,17.715,16.899,26.14c0.211,0.281,0.444,0.538,0.687,0.784c9.901,12.857,21.287,24.516,33.898,34.717
				c0.37,0.437,0.786,0.841,1.255,1.193c2.599,1.988,5.227,3.918,7.881,5.791c26.827,19.336,58.463,32.361,92.693,36.847
				c0.04,0.008,0.079,0.021,0.119,0.029c0.091,0.009,0.185,0.018,0.277,0.027c7.481,0.965,15.088,1.51,22.792,1.636
				c1.14,0.027,2.27,0.043,3.385,0.043c1.156,0,2.33-0.018,3.512-0.045c3.042-0.052,6.068-0.172,9.077-0.357
				c4.558-0.222,9.016-0.452,13.011-0.452c1.131-0.226,2.198-0.637,3.161-1.191c16.84-2.394,33.036-6.854,48.325-13.117
				c0.189-0.062,0.378-0.123,0.567-0.199c0.606-0.255,1.208-0.517,1.811-0.777c0.053-0.022,0.105-0.045,0.158-0.068
				c0.93-0.401,1.856-0.809,2.78-1.221c4.067-1.803,8.066-3.732,11.991-5.788c0.854-0.445,1.705-0.896,2.554-1.352
				c0.216-0.117,0.434-0.232,0.649-0.349c8.999-4.882,17.713-10.456,26.137-16.898c0.305-0.229,0.59-0.484,0.866-0.75
				c12.825-9.886,24.456-21.251,34.635-33.835c0.437-0.37,0.841-0.786,1.193-1.255c1.988-2.6,3.919-5.228,5.792-7.883
				c19.335-26.826,32.36-58.462,36.846-92.692c0.008-0.04,0.021-0.079,0.029-0.119c0.009-0.091,0.018-0.185,0.027-0.277
				c0.965-7.481,1.51-15.088,1.636-22.792C459.784,257.245,459.8,256.115,459.8,255z M431.051,320.012l-51.464-30.879h60.005
				C437.619,299.761,434.747,310.082,431.051,320.012z M406.662,365.291l-59.502-35.198c-3.413-1.707-7.68-0.853-10.24,1.707
				c-1.707,1.707-3.413,4.267-5.973,5.973c-3.413,2.56-3.413,6.827-1.707,10.24l34.515,59.771
				c-9.306,6.655-19.244,12.475-29.693,17.367l-34.689-60.071c-2.56-4.267-6.827-5.12-10.24-4.267s-6.827,1.707-10.24,2.56
				c-4.267,0.853-6.827,4.267-6.827,8.533v69.973c-11.947,0.853-22.187,0.853-34.133,0h-0.709c-0.048-0.005-0.096-0.008-0.144-0.013
				v-69.96c0-4.267-2.56-7.68-6.827-8.533c-3.413-0.853-7.68-2.56-11.093-3.413c-4.267-1.707-8.533,0-10.24,3.413l-35.762,60.455
				c-10.141-4.953-19.773-10.798-28.802-17.425l35.551-60.097c1.707-3.413,0.853-7.68-1.707-10.24
				c-1.707-1.707-4.267-3.413-5.973-5.973c-2.56-3.413-6.827-3.413-10.24-1.707l-60.2,34.764
				c-6.618-9.331-12.4-19.289-17.251-29.757l60.385-34.02c4.267-2.56,5.12-6.827,4.267-10.24s-1.707-6.827-2.56-10.24
				c-0.853-4.267-4.267-6.827-8.533-6.827H68.12c-0.083-0.584-0.152-1.167-0.22-1.75c-0.413-5.054-0.633-10.161-0.633-15.317
				c0-6.043,0.301-12.019,0.866-17.92h69.961c4.267,0,7.68-2.56,8.533-6.827c0.853-3.413,2.56-7.68,3.413-11.093
				c1.707-4.267,0-8.533-3.413-10.24l-60.455-35.762c4.953-10.141,10.798-19.773,17.425-28.802l60.097,35.551
				c3.413,1.707,7.68,0.853,10.24-1.707c1.707-1.707,3.413-4.267,5.973-5.973c3.413-2.56,3.413-6.827,1.707-10.24l-34.764-60.2
				c9.332-6.619,19.292-12.401,29.762-17.253l35.722,60.387c2.56,4.267,6.827,5.12,10.24,4.267s6.827-1.707,10.24-2.56
				c4.267-0.853,6.827-4.267,6.827-8.533V68.12c10.783-0.77,20.187-0.838,30.698-0.218c1.147,0.094,2.294,0.193,3.435,0.308v69.884
				c0,4.267,2.56,7.68,6.827,8.533c3.413,0.853,7.68,2.56,11.093,3.413c4.267,1.707,8.533,0,10.24-3.413L337.501,86.5
				c10.121,4.993,19.735,10.869,28.738,17.531l-35.293,59.662c-1.707,3.413-0.853,7.68,1.707,10.24
				c1.707,1.707,4.267,3.413,5.973,5.973c2.56,3.413,6.827,3.413,10.24,1.707l59.591-34.412c6.597,9.346,12.362,19.315,17.19,29.796
				l-59.714,34.483c-4.267,2.56-5.12,6.827-4.267,10.24c0.853,3.413,1.707,6.827,2.56,10.24c0.853,4.267,4.267,6.827,8.533,6.827
				h69.26c0.463,5.347,0.713,10.752,0.713,16.213c0,6.043-0.301,12.019-0.866,17.92H372.76c-4.267,0-7.68,2.56-8.533,6.827
				c-0.853,3.413-2.56,7.68-3.413,11.093c-1.707,4.267,0,8.533,3.413,10.24l59.797,35.373
				C419.094,346.605,413.267,356.248,406.662,365.291z M317.151,432.082c-9.317,3.295-18.959,5.883-28.872,7.675V383
				L317.151,432.082z M220.867,439.592c-10.627-1.973-20.948-4.845-30.879-8.541l30.879-51.464V439.592z M70.243,288.28H127
				l-49.082,28.872C74.624,307.835,72.035,298.192,70.243,288.28z M78.949,189.988l51.464,30.879H70.408
				C72.381,210.239,75.253,199.918,78.949,189.988z M193.555,77.668c9.365-3.269,19.058-5.819,29.019-7.572V127L193.555,77.668z
				 M291.693,70.902c10.469,2.096,20.628,5.072,30.401,8.843l-30.401,50.669V70.902z M398.951,134.847l-44.964,26.287l26.548-45.411
				C387.11,121.658,393.263,128.051,398.951,134.847z M385.56,222.573l47.213-27.772c3.062,8.976,5.455,18.255,7.13,27.772H385.56z
				 M133.845,111.897l27.288,46.677l-46.907-27.423C120.291,124.269,126.85,117.833,133.845,111.897z M111.897,376.155
				l46.677-27.288l-27.423,46.907C124.269,389.709,117.833,383.15,111.897,376.155z M376.155,398.103l-27.288-46.677l46.907,27.423
				C389.709,385.731,383.15,392.167,376.155,398.103z"/>
		</g>
	</g>
</g>
</svg>